<svg width="206" height="47" viewBox="0 0 206 47" fill="none" xmlns="http://www.w3.org/2000/svg">
<g filter="url(#filter0_d_19_7)">
<path d="M89.768 32H84.692V26.888H89.768V32ZM100.143 14.468C99.9753 14.564 99.7713 14.72 99.5313 14.936C99.3153 15.128 99.1353 15.308 98.9913 15.476C98.8713 15.62 98.8113 15.704 98.8113 15.728V17.636L98.9193 17.852L108.063 20.336C108.999 20.6 109.731 21.128 110.259 21.92C110.787 22.712 111.051 23.576 111.051 24.512V26.636C111.051 27.452 110.835 28.196 110.403 28.868C110.163 29.228 109.755 29.708 109.179 30.308C108.603 30.884 108.135 31.28 107.775 31.496C106.959 31.952 106.167 32.18 105.399 32.18H99.8913C98.1633 32.18 96.5793 31.16 95.1393 29.12C94.6113 28.4 94.2033 27.632 93.9153 26.816L97.9833 25.556C98.6793 26.804 99.3033 27.608 99.8553 27.968H105.327C105.495 27.872 105.687 27.728 105.903 27.536C106.119 27.344 106.287 27.176 106.407 27.032C106.551 26.864 106.623 26.768 106.623 26.744V24.62L106.515 24.404C105.651 24.164 104.187 23.768 102.123 23.216C100.083 22.664 98.5113 22.244 97.4073 21.956C96.4473 21.692 95.7033 21.164 95.1753 20.372C94.6713 19.58 94.4193 18.716 94.4193 17.78V15.8C94.4193 14.888 94.6113 14.132 94.9953 13.532C95.2353 13.196 95.6433 12.74 96.2193 12.164C96.8193 11.588 97.3113 11.18 97.6953 10.94C98.5113 10.484 99.2913 10.256 100.035 10.256H105.147C106.827 10.256 108.399 11.264 109.863 13.28C110.343 13.952 110.751 14.72 111.087 15.584L107.019 16.736C106.563 15.776 105.927 15.02 105.111 14.468H100.143ZM130.723 18.644C130.723 19.532 130.495 20.312 130.039 20.984C129.895 21.224 129.595 21.56 129.139 21.992C128.707 22.424 128.359 22.736 128.095 22.928C127.327 23.48 126.427 23.756 125.395 23.756H119.275V32H114.883V10.4H125.395C126.451 10.4 127.351 10.676 128.095 11.228C128.815 11.78 129.463 12.44 130.039 13.208C130.495 13.832 130.723 14.624 130.723 15.584V18.644ZM126.331 18.68V15.476C126.091 15.092 125.779 14.804 125.395 14.612H119.275V19.544H125.395C125.467 19.544 125.611 19.448 125.827 19.256C126.067 19.04 126.235 18.848 126.331 18.68ZM151.095 32H146.415L144.975 27.86H137.451C137.307 28.316 137.055 29.012 136.695 29.948C136.359 30.86 136.119 31.544 135.975 32H131.295L138.783 10.4H143.643L151.095 32ZM143.643 23.648L141.195 16.7C140.931 17.468 140.523 18.632 139.971 20.192C139.443 21.728 139.047 22.88 138.783 23.648H143.643ZM170.142 15.584L166.074 16.736C165.618 15.776 164.982 15.02 164.166 14.468H159.666C159.09 14.876 158.622 15.356 158.262 15.908V26.636C158.262 26.66 158.31 26.744 158.406 26.888C158.526 27.032 158.694 27.212 158.91 27.428C159.15 27.644 159.402 27.824 159.666 27.968H164.238C164.91 27.512 165.522 26.792 166.074 25.808L170.178 26.816C169.89 27.632 169.482 28.4 168.954 29.12C167.514 31.16 165.93 32.18 164.202 32.18H159.486C158.67 32.18 157.878 31.952 157.11 31.496C156.75 31.28 156.294 30.896 155.742 30.344C155.19 29.768 154.77 29.288 154.482 28.904C154.074 28.256 153.87 27.512 153.87 26.672V15.764C153.87 14.876 154.074 14.132 154.482 13.532C154.746 13.172 155.154 12.704 155.706 12.128C156.282 11.552 156.762 11.156 157.146 10.94C157.962 10.484 158.742 10.256 159.486 10.256H164.202C165.882 10.256 167.454 11.264 168.918 13.28C169.398 13.952 169.806 14.72 170.142 15.584ZM188.059 32H173.875V10.4H188.059V14.612H178.267V19.04H187.735V23.252H178.267V27.788H188.059V32Z" fill="#FF003C"/>
</g>
<g filter="url(#filter1_d_19_7)">
<path d="M98.768 36H93.692V30.888H98.768V36ZM109.143 18.468C108.975 18.564 108.771 18.72 108.531 18.936C108.315 19.128 108.135 19.308 107.991 19.476C107.871 19.62 107.811 19.704 107.811 19.728V21.636L107.919 21.852L117.063 24.336C117.999 24.6 118.731 25.128 119.259 25.92C119.787 26.712 120.051 27.576 120.051 28.512V30.636C120.051 31.452 119.835 32.196 119.403 32.868C119.163 33.228 118.755 33.708 118.179 34.308C117.603 34.884 117.135 35.28 116.775 35.496C115.959 35.952 115.167 36.18 114.399 36.18H108.891C107.163 36.18 105.579 35.16 104.139 33.12C103.611 32.4 103.203 31.632 102.915 30.816L106.983 29.556C107.679 30.804 108.303 31.608 108.855 31.968H114.327C114.495 31.872 114.687 31.728 114.903 31.536C115.119 31.344 115.287 31.176 115.407 31.032C115.551 30.864 115.623 30.768 115.623 30.744V28.62L115.515 28.404C114.651 28.164 113.187 27.768 111.123 27.216C109.083 26.664 107.511 26.244 106.407 25.956C105.447 25.692 104.703 25.164 104.175 24.372C103.671 23.58 103.419 22.716 103.419 21.78V19.8C103.419 18.888 103.611 18.132 103.995 17.532C104.235 17.196 104.643 16.74 105.219 16.164C105.819 15.588 106.311 15.18 106.695 14.94C107.511 14.484 108.291 14.256 109.035 14.256H114.147C115.827 14.256 117.399 15.264 118.863 17.28C119.343 17.952 119.751 18.72 120.087 19.584L116.019 20.736C115.563 19.776 114.927 19.02 114.111 18.468H109.143ZM139.723 22.644C139.723 23.532 139.495 24.312 139.039 24.984C138.895 25.224 138.595 25.56 138.139 25.992C137.707 26.424 137.359 26.736 137.095 26.928C136.327 27.48 135.427 27.756 134.395 27.756H128.275V36H123.883V14.4H134.395C135.451 14.4 136.351 14.676 137.095 15.228C137.815 15.78 138.463 16.44 139.039 17.208C139.495 17.832 139.723 18.624 139.723 19.584V22.644ZM135.331 22.68V19.476C135.091 19.092 134.779 18.804 134.395 18.612H128.275V23.544H134.395C134.467 23.544 134.611 23.448 134.827 23.256C135.067 23.04 135.235 22.848 135.331 22.68ZM160.095 36H155.415L153.975 31.86H146.451C146.307 32.316 146.055 33.012 145.695 33.948C145.359 34.86 145.119 35.544 144.975 36H140.295L147.783 14.4H152.643L160.095 36ZM152.643 27.648L150.195 20.7C149.931 21.468 149.523 22.632 148.971 24.192C148.443 25.728 148.047 26.88 147.783 27.648H152.643ZM179.142 19.584L175.074 20.736C174.618 19.776 173.982 19.02 173.166 18.468H168.666C168.09 18.876 167.622 19.356 167.262 19.908V30.636C167.262 30.66 167.31 30.744 167.406 30.888C167.526 31.032 167.694 31.212 167.91 31.428C168.15 31.644 168.402 31.824 168.666 31.968H173.238C173.91 31.512 174.522 30.792 175.074 29.808L179.178 30.816C178.89 31.632 178.482 32.4 177.954 33.12C176.514 35.16 174.93 36.18 173.202 36.18H168.486C167.67 36.18 166.878 35.952 166.11 35.496C165.75 35.28 165.294 34.896 164.742 34.344C164.19 33.768 163.77 33.288 163.482 32.904C163.074 32.256 162.87 31.512 162.87 30.672V19.764C162.87 18.876 163.074 18.132 163.482 17.532C163.746 17.172 164.154 16.704 164.706 16.128C165.282 15.552 165.762 15.156 166.146 14.94C166.962 14.484 167.742 14.256 168.486 14.256H173.202C174.882 14.256 176.454 15.264 177.918 17.28C178.398 17.952 178.806 18.72 179.142 19.584ZM197.059 36H182.875V14.4H197.059V18.612H187.267V23.04H196.735V27.252H187.267V31.788H197.059V36Z" fill="#0085FF"/>
</g>
<path d="M17.568 17.584L13.5 18.736C13.044 17.776 12.408 17.02 11.592 16.468H7.092C6.516 16.876 6.048 17.356 5.688 17.908V28.636C5.688 28.66 5.736 28.744 5.832 28.888C5.952 29.032 6.12 29.212 6.336 29.428C6.576 29.644 6.828 29.824 7.092 29.968H11.664C12.336 29.512 12.948 28.792 13.5 27.808L17.604 28.816C17.316 29.632 16.908 30.4 16.38 31.12C14.94 33.16 13.356 34.18 11.628 34.18H6.912C6.096 34.18 5.304 33.952 4.536 33.496C4.176 33.28 3.72 32.896 3.168 32.344C2.616 31.768 2.196 31.288 1.908 30.904C1.5 30.256 1.296 29.512 1.296 28.672V17.764C1.296 16.876 1.5 16.132 1.908 15.532C2.172 15.172 2.58 14.704 3.132 14.128C3.708 13.552 4.188 13.156 4.572 12.94C5.388 12.484 6.168 12.256 6.912 12.256H11.628C13.308 12.256 14.88 13.264 16.344 15.28C16.824 15.952 17.232 16.72 17.568 17.584ZM37.8968 12.4L30.5527 24.64V34H26.1248V24.64L18.8887 12.4H23.8568L28.3568 19.996L32.9288 12.4H37.8968ZM56.054 28.852C56.054 29.788 55.838 30.568 55.406 31.192C54.854 31.984 54.218 32.644 53.498 33.172C52.706 33.724 51.794 34 50.762 34H40.25V12.4H50.762C51.77 12.4 52.682 12.688 53.498 13.264C53.738 13.456 54.062 13.768 54.47 14.2C54.902 14.632 55.214 14.968 55.406 15.208C55.838 15.856 56.054 16.66 56.054 17.62V20.212C56.054 21.34 55.658 22.348 54.866 23.236C55.658 24.1 56.054 25.108 56.054 26.26V28.852ZM51.662 28.852V26.224C51.518 25.984 51.338 25.756 51.122 25.54C50.906 25.324 50.762 25.216 50.69 25.216H44.642V29.788H50.726C50.798 29.788 50.942 29.692 51.158 29.5C51.374 29.284 51.542 29.068 51.662 28.852ZM51.662 20.248V17.62C51.518 17.38 51.338 17.152 51.122 16.936C50.906 16.72 50.762 16.612 50.69 16.612H44.642V21.148H50.726C50.798 21.148 50.942 21.052 51.158 20.86C51.374 20.644 51.542 20.44 51.662 20.248ZM74.3324 34H60.1484V12.4H74.3324V16.612H64.5404V21.04H74.0084V25.252H64.5404V29.788H74.3324V34ZM94.5509 20.644C94.5509 21.532 94.3229 22.312 93.8669 22.984C93.7229 23.224 93.4229 23.56 92.9669 23.992C92.5349 24.424 92.1869 24.736 91.9229 24.928C91.7309 25.072 91.4429 25.24 91.0589 25.432L95.7389 34H90.8429L86.5589 25.756H83.1029V34H78.7109V12.4H89.2229C90.2789 12.4 91.1789 12.676 91.9229 13.228C92.6429 13.78 93.2909 14.44 93.8669 15.208C94.3229 15.832 94.5509 16.624 94.5509 17.584V20.644ZM90.1589 20.68V17.476C89.9189 17.092 89.6069 16.804 89.2229 16.612H83.1029V21.544H89.2229C89.2949 21.544 89.4389 21.448 89.6549 21.256C89.8949 21.04 90.0629 20.848 90.1589 20.68Z" fill="black"/>
<path d="M104.502 34H99.4264V28.888H104.502V34ZM114.878 16.468C114.71 16.564 114.506 16.72 114.266 16.936C114.05 17.128 113.87 17.308 113.726 17.476C113.606 17.62 113.546 17.704 113.546 17.728V19.636L113.654 19.852L122.798 22.336C123.734 22.6 124.466 23.128 124.994 23.92C125.522 24.712 125.786 25.576 125.786 26.512V28.636C125.786 29.452 125.57 30.196 125.138 30.868C124.898 31.228 124.49 31.708 123.914 32.308C123.338 32.884 122.87 33.28 122.51 33.496C121.694 33.952 120.902 34.18 120.134 34.18H114.626C112.898 34.18 111.314 33.16 109.874 31.12C109.346 30.4 108.938 29.632 108.65 28.816L112.718 27.556C113.414 28.804 114.038 29.608 114.59 29.968H120.062C120.23 29.872 120.422 29.728 120.638 29.536C120.854 29.344 121.022 29.176 121.142 29.032C121.286 28.864 121.358 28.768 121.358 28.744V26.62L121.25 26.404C120.386 26.164 118.922 25.768 116.858 25.216C114.818 24.664 113.246 24.244 112.142 23.956C111.182 23.692 110.438 23.164 109.91 22.372C109.406 21.58 109.154 20.716 109.154 19.78V17.8C109.154 16.888 109.346 16.132 109.73 15.532C109.97 15.196 110.378 14.74 110.954 14.164C111.554 13.588 112.046 13.18 112.43 12.94C113.246 12.484 114.026 12.256 114.77 12.256H119.882C121.562 12.256 123.134 13.264 124.598 15.28C125.078 15.952 125.486 16.72 125.822 17.584L121.754 18.736C121.298 17.776 120.662 17.02 119.846 16.468H114.878ZM145.457 20.644C145.457 21.532 145.229 22.312 144.773 22.984C144.629 23.224 144.329 23.56 143.873 23.992C143.441 24.424 143.093 24.736 142.829 24.928C142.061 25.48 141.161 25.756 140.129 25.756H134.009V34H129.617V12.4H140.129C141.185 12.4 142.085 12.676 142.829 13.228C143.549 13.78 144.197 14.44 144.773 15.208C145.229 15.832 145.457 16.624 145.457 17.584V20.644ZM141.065 20.68V17.476C140.825 17.092 140.513 16.804 140.129 16.612H134.009V21.544H140.129C140.201 21.544 140.345 21.448 140.561 21.256C140.801 21.04 140.969 20.848 141.065 20.68ZM165.83 34H161.15L159.71 29.86H152.186C152.042 30.316 151.79 31.012 151.43 31.948C151.094 32.86 150.854 33.544 150.71 34H146.03L153.518 12.4H158.378L165.83 34ZM158.378 25.648L155.93 18.7C155.666 19.468 155.258 20.632 154.706 22.192C154.178 23.728 153.782 24.88 153.518 25.648H158.378ZM184.877 17.584L180.809 18.736C180.353 17.776 179.717 17.02 178.901 16.468H174.401C173.825 16.876 173.357 17.356 172.997 17.908V28.636C172.997 28.66 173.045 28.744 173.141 28.888C173.261 29.032 173.429 29.212 173.645 29.428C173.885 29.644 174.137 29.824 174.401 29.968H178.973C179.645 29.512 180.257 28.792 180.809 27.808L184.913 28.816C184.625 29.632 184.217 30.4 183.689 31.12C182.249 33.16 180.665 34.18 178.937 34.18H174.221C173.405 34.18 172.613 33.952 171.845 33.496C171.485 33.28 171.029 32.896 170.477 32.344C169.925 31.768 169.505 31.288 169.217 30.904C168.809 30.256 168.605 29.512 168.605 28.672V17.764C168.605 16.876 168.809 16.132 169.217 15.532C169.481 15.172 169.889 14.704 170.441 14.128C171.017 13.552 171.497 13.156 171.881 12.94C172.697 12.484 173.477 12.256 174.221 12.256H178.937C180.617 12.256 182.189 13.264 183.653 15.28C184.133 15.952 184.541 16.72 184.877 17.584ZM202.793 34H188.609V12.4H202.793V16.612H193.001V21.04H202.469V25.252H193.001V29.788H202.793V34Z" fill="#FAFF00"/>
<defs>
<filter id="filter0_d_19_7" x="80.692" y="7.25601" width="111.367" height="29.924" filterUnits="userSpaceOnUse" color-interpolation-filters="sRGB">
<feFlood flood-opacity="0" result="BackgroundImageFix"/>
<feColorMatrix in="SourceAlpha" type="matrix" values="0 0 0 0 0 0 0 0 0 0 0 0 0 0 0 0 0 0 127 0" result="hardAlpha"/>
<feOffset dy="1"/>
<feGaussianBlur stdDeviation="2"/>
<feComposite in2="hardAlpha" operator="out"/>
<feColorMatrix type="matrix" values="0 0 0 0 0 0 0 0 0 0 0 0 0 0 0 0 0 0 0.25 0"/>
<feBlend mode="normal" in2="BackgroundImageFix" result="effect1_dropShadow_19_7"/>
<feBlend mode="normal" in="SourceGraphic" in2="effect1_dropShadow_19_7" result="shape"/>
</filter>
<filter id="filter1_d_19_7" x="89.692" y="11.256" width="111.367" height="29.924" filterUnits="userSpaceOnUse" color-interpolation-filters="sRGB">
<feFlood flood-opacity="0" result="BackgroundImageFix"/>
<feColorMatrix in="SourceAlpha" type="matrix" values="0 0 0 0 0 0 0 0 0 0 0 0 0 0 0 0 0 0 127 0" result="hardAlpha"/>
<feOffset dy="1"/>
<feGaussianBlur stdDeviation="2"/>
<feComposite in2="hardAlpha" operator="out"/>
<feColorMatrix type="matrix" values="0 0 0 0 0 0 0 0 0 0 0 0 0 0 0 0 0 0 0.25 0"/>
<feBlend mode="normal" in2="BackgroundImageFix" result="effect1_dropShadow_19_7"/>
<feBlend mode="normal" in="SourceGraphic" in2="effect1_dropShadow_19_7" result="shape"/>
</filter>
</defs>
</svg>
